<svg width="94" height="89" viewBox="0 0 94 89" fill="none" xmlns="http://www.w3.org/2000/svg">
<rect x="13" width="81" height="64" rx="16" fill="#ECECEC"/>
<path d="M69.5699 53.5715C67.5866 53.5715 65.6653 52.6883 64.3328 51.1543C63.0158 49.6514 62.4115 47.6681 62.6749 45.7158C63.0623 42.6634 65.5569 40.1533 68.6248 39.7815C71.5222 39.4251 74.4351 40.9435 75.8451 43.5776C76.0466 43.9494 76.0311 44.3988 75.8142 44.7552C75.5972 45.1115 75.2099 45.3284 74.7915 45.3284H71.6152C70.8405 45.3284 70.2672 45.9017 70.2672 46.6765C70.2672 47.4512 70.8405 48.0245 71.6152 48.0245H74.7915C75.2099 48.0245 75.5817 48.2414 75.7987 48.5823C76.0156 48.9386 76.0311 49.3725 75.8451 49.7444C74.6676 52.146 72.3124 53.5715 69.5699 53.5715ZM69.4615 42.1056C69.2755 42.1056 69.1051 42.1211 68.9191 42.1366C66.9204 42.3845 65.278 44.0269 65.0301 46.0257C64.8596 47.3272 65.2315 48.5823 66.1147 49.5894C66.9978 50.612 68.2684 51.2008 69.5544 51.2008C70.5461 51.2008 71.4757 50.9219 72.2195 50.4106H71.6152C69.5234 50.4106 67.881 48.7682 67.881 46.6765C67.881 44.5847 69.5234 42.9423 71.6152 42.9423H72.142C71.3518 42.4155 70.4066 42.1056 69.4615 42.1056Z" fill="#1F2B75"/>
<path d="M64.4877 45.3283H56.7095C56.0588 45.3283 55.5165 44.8015 55.5165 44.1352C55.5165 43.4689 56.0433 42.9421 56.7095 42.9421H64.4877C65.1385 42.9421 65.6808 43.4689 65.6808 44.1352C65.6808 44.8015 65.1385 45.3283 64.4877 45.3283Z" fill="#1F2B75"/>
<path d="M64.4877 50.3949H56.7095C56.0588 50.3949 55.5165 49.8681 55.5165 49.2019C55.5165 48.5356 56.0433 48.0088 56.7095 48.0088H64.4877C65.1385 48.0088 65.6808 48.5356 65.6808 49.2019C65.6808 49.8681 65.1385 50.3949 64.4877 50.3949Z" fill="#1F2B75"/>
<path d="M51.9527 86.9772H24.0318C21.3358 86.9772 19.275 84.9164 19.275 82.2204V17.9496C19.275 15.2536 21.3358 13.1929 24.0318 13.1929H51.9527C54.6487 13.1929 56.7095 15.2536 56.7095 17.9496V82.2049C56.7095 84.9164 54.6487 86.9772 51.9527 86.9772Z" fill="#1CC869"/>
<path d="M56.7094 63.8907C56.0587 63.8907 55.5164 63.3639 55.5164 62.6976V29.0593C55.5164 28.4085 56.0432 27.8662 56.7094 27.8662C57.3757 27.8662 57.9025 28.393 57.9025 29.0593V62.6976C57.9025 63.3484 57.3757 63.8907 56.7094 63.8907Z" fill="#1F2B75"/>
<path d="M19.275 39.4561C18.6242 39.4561 18.0819 38.9293 18.0819 38.263V16.6793C18.0819 14.0917 20.1891 12 22.7612 12H53.3781C55.9657 12 58.0574 14.1072 58.0574 16.6793V17.7949C58.0574 18.4457 57.5306 18.988 56.8644 18.988C56.1981 18.988 55.6713 18.4612 55.6713 17.7949V16.6793C55.6713 15.4398 54.6177 14.3861 53.3781 14.3861H22.7612C21.5217 14.3861 20.468 15.4398 20.468 16.6793V38.263C20.4526 38.9138 19.9257 39.4561 19.275 39.4561Z" fill="#1F2B75"/>
<path d="M53.2232 88.3254H22.7612C20.1737 88.3254 18.0819 86.2182 18.0819 83.6461V48.7373C18.0819 48.0865 18.6087 47.5442 19.275 47.5442C19.9412 47.5442 20.468 48.071 20.468 48.7373V83.6461C20.468 84.8857 21.5217 85.9393 22.7612 85.9393H53.2232C54.4627 85.9393 55.5164 84.8857 55.5164 83.6461V73.1719C55.5164 72.5212 56.0432 71.9788 56.7094 71.9788C57.3757 71.9788 57.9025 72.5057 57.9025 73.1719V83.6461C57.9025 86.2182 55.8108 88.3254 53.2232 88.3254Z" fill="#1F2B75"/>
<path d="M40.5333 18.8334H35.4511C34.8004 18.8334 34.2581 18.3066 34.2581 17.6403C34.2581 16.9741 34.7849 16.4473 35.4511 16.4473H40.5333C41.1841 16.4473 41.7264 16.9741 41.7264 17.6403C41.7264 18.3066 41.1841 18.8334 40.5333 18.8334Z" fill="#1F2B75"/>
<path d="M40.5333 83.8786H35.4511C34.8004 83.8786 34.2581 83.3518 34.2581 82.6855C34.2581 82.0192 34.7849 81.4924 35.4511 81.4924H40.5333C41.1841 81.4924 41.7264 82.0192 41.7264 82.6855C41.7264 83.3518 41.1841 83.8786 40.5333 83.8786Z" fill="#1F2B75"/>
<path d="M71.6305 72.6916H27.2081C25.4572 72.6916 24.0317 71.2662 24.0317 69.5153V66.3389C24.0317 64.5881 25.4572 63.1626 27.2081 63.1626H71.6305C73.3814 63.1626 74.8069 64.5881 74.8069 66.3389V69.5153C74.8069 71.2662 73.3814 72.6916 71.6305 72.6916Z" fill="white"/>
<path d="M71.6305 72.6915H63.0621V63.178H71.6305C73.3814 63.178 74.8069 64.6035 74.8069 66.3543V69.5307C74.8069 71.2661 73.3814 72.6915 71.6305 72.6915Z" fill="#DCDCDC"/>
<path d="M71.6306 73.8849H27.2082C24.8065 73.8849 22.8387 71.9326 22.8387 69.5155V66.3391C22.8387 63.9375 24.791 61.9697 27.2082 61.9697H71.6306C74.0322 61.9697 76 63.922 76 66.3391V69.5155C75.9845 71.9326 74.0322 73.8849 71.6306 73.8849ZM27.2082 64.3559C26.1081 64.3559 25.2249 65.239 25.2249 66.3391V69.5155C25.2249 70.6156 26.1081 71.4988 27.2082 71.4988H71.6306C72.7307 71.4988 73.6139 70.6156 73.6139 69.5155V66.3391C73.6139 65.239 72.7307 64.3559 71.6306 64.3559H27.2082Z" fill="#1F2B75"/>
<path d="M63.0622 73.5593C62.4114 73.5593 61.8691 73.0325 61.8691 72.3662V63.333C61.8691 62.6822 62.3959 62.1399 63.0622 62.1399C63.7285 62.1399 64.2553 62.6667 64.2553 63.333V72.3817C64.2553 73.0325 63.713 73.5593 63.0622 73.5593Z" fill="#1F2B75"/>
<path d="M38.3022 48.5822H2.77354C1.82839 48.5822 1.19312 47.9469 1.19312 47.0017V40.0138C1.19312 39.0686 1.82839 38.4333 2.77354 38.4333H38.3022C39.2473 38.4333 39.8826 39.0686 39.8826 40.0138V47.0017C39.8981 47.7765 39.2628 48.5822 38.3022 48.5822Z" fill="white"/>
<path d="M38.3021 49.7601H2.7735C1.16208 49.7601 0 48.598 0 46.9866V39.9986C0 38.3872 1.16208 37.2251 2.7735 37.2251H38.3021C39.9136 37.2251 41.0756 38.3872 41.0756 39.9986V46.9866C41.0911 48.5205 39.8361 49.7601 38.3021 49.7601ZM2.7735 39.6112C2.4791 39.6112 2.37064 39.7042 2.37064 40.0141V47.0021C2.37064 47.2965 2.46361 47.4049 2.7735 47.4049H38.3021C38.5965 47.4049 38.705 47.126 38.705 47.0021V40.0141C38.705 39.7197 38.612 39.6112 38.3021 39.6112H2.7735Z" fill="#1F2B75"/>
<path d="M29.7492 49.6052C29.0985 49.6052 28.5562 49.0784 28.5562 48.4121V38.5732C28.5562 37.9224 29.083 37.3801 29.7492 37.3801C30.4155 37.3801 30.9423 37.9069 30.9423 38.5732V48.4121C30.9268 49.0784 30.4 49.6052 29.7492 49.6052Z" fill="#1F2B75"/>
<path d="M33.0806 41.7498H36.5668V45.236H33.0806V41.7498Z" fill="#1F2B75"/>
<path d="M25.3023 44.6933H8.80073C8.14997 44.6933 7.60767 44.1665 7.60767 43.5002C7.60767 42.8339 8.13447 42.3071 8.80073 42.3071H25.3023C25.953 42.3071 26.4953 42.8339 26.4953 43.5002C26.4953 44.1665 25.953 44.6933 25.3023 44.6933Z" fill="#1F2B75"/>
<path d="M5.77941 44.6933H5.62446C4.9737 44.6933 4.4314 44.1665 4.4314 43.5002C4.4314 42.8339 4.95821 42.3071 5.62446 42.3071H5.77941C6.43017 42.3071 6.97248 42.8339 6.97248 43.5002C6.97248 44.1665 6.44567 44.6933 5.77941 44.6933Z" fill="#1F2B75"/>
<path d="M69.7248 24.3024C69.7248 26.8435 67.819 28.7493 65.2779 28.7493C64.0074 28.7493 52.8979 28.7493 51.7978 28.7493C49.737 28.7493 48.1411 27.1689 48.1411 25.0926C48.1411 23.0164 49.7215 21.436 51.7978 21.436C52.2781 21.436 52.7429 21.5909 53.0683 21.7459C53.7036 19.5302 55.7644 17.7793 58.3054 17.7793C60.3662 17.7793 62.1171 18.8949 63.0622 20.6303C63.6975 20.1499 64.4877 19.995 65.2779 19.995C67.819 19.8555 69.7248 21.9163 69.7248 24.3024Z" fill="#DCDCDC"/>
<path d="M65.2779 29.9269H51.7978C49.0862 29.9269 46.9635 27.8041 46.9635 25.0926C46.9635 22.3811 49.0862 20.2584 51.7978 20.2584C51.9992 20.2584 52.1851 20.2739 52.371 20.3049C53.4866 18.0737 55.7798 16.6172 58.3054 16.6172C60.3662 16.6172 62.2255 17.5314 63.465 19.1273C63.9918 18.9413 64.5961 18.8484 65.2469 18.8484C66.7189 18.7709 68.1133 19.2667 69.1825 20.2739C70.2826 21.312 70.9178 22.784 70.9178 24.3334C70.9178 27.5097 68.5007 29.9269 65.2779 29.9269ZM51.7978 22.629C50.4033 22.629 49.3341 23.6826 49.3341 25.0926C49.3341 26.4871 50.3878 27.5562 51.7978 27.5562H65.2779C67.1682 27.5562 68.5317 26.1927 68.5317 24.3024C68.5317 23.4192 68.1753 22.567 67.5401 21.9782C66.9513 21.4204 66.1766 21.1416 65.3553 21.2035C65.3244 21.2035 65.3089 21.2035 65.2779 21.2035C64.6271 21.2035 64.1158 21.343 63.7749 21.6064C63.496 21.8078 63.1397 21.8853 62.8143 21.8233C62.4734 21.7458 62.1945 21.5289 62.0241 21.2345C61.2493 19.809 59.9013 19.0033 58.3054 19.0033C56.4151 19.0033 54.7417 20.2739 54.2149 22.1022C54.1219 22.4431 53.874 22.722 53.5486 22.8614C53.2232 23.0009 52.8514 23.0009 52.5415 22.8304C52.3556 22.7375 52.0612 22.629 51.7978 22.629Z" fill="#1F2B75"/>
</svg>
