<svg xmlns="http://www.w3.org/2000/svg" width="95" height="89" viewBox="0 0 95 89" fill="none"><rect x="13.439" width="81" height="64" rx="16" fill="#ECECEC"/><path d="M40.1889 32.9722C57.4021 32.9722 69.4486 43.7609 69.4486 57.1262C69.4486 64.1822 65.5567 70.5338 59.3489 74.9574V86.3725H49.1578V79.8074C45.7704 80.7875 42.1069 81.3242 38.2811 81.3242C34.4553 81.3242 30.7918 80.7875 27.4044 79.8074V86.3723H17.2132V74.9572C12.9659 71.9304 9.80518 68.0029 8.23082 63.5642H1.69287V50.6865H8.23082C9.44631 47.2585 11.6098 44.1351 14.4876 41.4959L7.77874 33.1583C11.625 30.062 17.252 30.6715 20.3483 34.5177L21.9515 36.512C26.7017 34.2384 34.2013 32.9722 40.1889 32.9722Z" fill="white"/><path d="M39.7572 45.6636C46.3848 45.6636 51.758 51.0351 51.758 57.6627C51.758 64.292 46.3848 69.6635 39.7572 69.6635C33.1295 69.6635 27.7563 64.292 27.7563 57.6627C27.7563 51.0351 33.1295 45.6636 39.7572 45.6636Z" fill="#1CC869"/><path d="M37.6852 63.4422C38.134 63.4422 38.5645 63.2637 38.8823 62.9463L47.0538 54.7746C47.7148 54.1136 47.7148 53.0417 47.0538 52.3806C46.3925 51.7195 45.321 51.7195 44.6595 52.3806L37.6852 59.3551L34.8532 56.5231C34.1919 55.862 33.1204 55.862 32.459 56.5231C31.7979 57.1842 31.7979 58.2561 32.459 58.9174L36.4881 62.9465C36.8058 63.2639 37.2363 63.4422 37.6852 63.4422Z" fill="#1F2B75"/><path d="M39.7573 71.3564C47.308 71.3564 53.451 65.2134 53.451 57.6627C53.451 50.113 47.308 43.9707 39.7573 43.9707C32.2065 43.9707 26.0635 50.113 26.0635 57.6627C26.0635 65.2134 32.2065 71.3564 39.7573 71.3564ZM39.7573 47.3564C45.441 47.3564 50.0653 51.9799 50.0653 57.6627C50.0653 63.3466 45.4412 67.9707 39.7573 67.9707C34.0735 67.9707 29.4492 63.3466 29.4492 57.6627C29.4493 51.9799 34.0733 47.3564 39.7573 47.3564Z" fill="#1F2B75"/><path d="M0 50.6864V63.5641C0 64.4991 0.758016 65.257 1.69285 65.257H7.07043C8.74508 69.263 11.6394 72.8813 15.5204 75.8144V86.3722C15.5204 87.3072 16.2784 88.065 17.2132 88.065H27.4042C28.339 88.065 29.0971 87.3072 29.0971 86.3722V81.993C32.0701 82.673 35.1494 83.0168 38.2809 83.0168C41.4126 83.0168 44.4918 82.673 47.4647 81.9931V86.3722C47.4647 87.3072 48.2228 88.065 49.1576 88.065H59.3488C60.2836 88.065 61.0416 87.3072 61.0416 86.3722V75.8142C67.0194 71.2926 70.6089 65.1267 71.0851 58.6121C73.9082 57.8835 76 55.3153 76 52.2675V49.9365C76 49.0015 75.242 48.2437 74.3071 48.2437C73.3723 48.2437 72.6143 49.0015 72.6143 49.9365V52.2675C72.6143 53.4301 71.9827 54.4453 71.0463 54.9958C69.8312 41.3332 56.9734 31.2792 40.1888 31.2792C35.0166 31.2792 27.7498 32.2611 22.4558 34.4375L21.6671 33.4564C19.8861 31.244 17.3503 29.8571 14.5269 29.5517C11.7015 29.2457 8.92932 30.0587 6.71713 31.8397C5.98878 32.4259 5.87366 33.4912 6.45957 34.2198L12.2007 41.3546C9.94254 43.6669 8.22271 46.2272 7.06942 48.9937H1.69285C0.757847 48.9936 0 49.7514 0 50.6864ZM3.3857 52.3793H8.2308C8.94752 52.3793 9.58687 51.9277 9.8264 51.2521C10.9369 48.1204 12.8902 45.2578 15.632 42.7434C16.2898 42.1402 16.3662 41.1297 15.8066 40.4344L10.2825 33.5696C11.4791 33.0006 12.8124 32.7717 14.1626 32.9175C16.0871 33.1256 17.8155 34.0709 19.0289 35.5784L20.6321 37.5726C21.1247 38.1851 21.9735 38.3781 22.6823 38.0388C26.8987 36.0208 33.9342 34.6649 40.1888 34.6649C55.9046 34.6649 67.7557 44.3211 67.7557 57.1261C67.7557 63.3298 64.3334 69.3267 58.3666 73.5784C57.9207 73.896 57.6561 74.4098 57.6561 74.9571V84.6793H50.8506V79.8074C50.8506 79.2751 50.6003 78.7741 50.175 78.4541C49.7494 78.1343 49.1981 78.0333 48.6873 78.1812C45.3618 79.1433 41.8608 79.6313 38.2811 79.6313C34.7015 79.6313 31.2005 79.1435 27.8748 78.1812C27.3632 78.033 26.8126 78.1343 26.3871 78.4541C25.9617 78.7738 25.7115 79.2751 25.7115 79.8074V84.6795H18.9064V74.9573C18.9064 74.41 18.6418 73.8964 18.1961 73.5786C14.154 70.6983 11.2598 67.0395 9.82673 62.9982C9.58721 62.3227 8.9482 61.8713 8.23114 61.8713H3.3857V52.3793Z" fill="#1F2B75"/><path d="M55.3697 47.0165C58.5538 49.7101 60.3072 53.3004 60.3072 57.1263C60.3072 58.0613 61.0652 58.8191 62 58.8191C62.9348 58.8191 63.6929 58.0613 63.6929 57.1263C63.6929 52.2876 61.5135 47.7792 57.5566 44.4315C56.8427 43.8278 55.7749 43.9165 55.1706 44.6305C54.567 45.3444 54.656 46.4124 55.3697 47.0165Z" fill="#1F2B75"/><path d="M15.2832 53.9944C16.218 53.9944 16.976 53.2365 16.976 52.3015C16.976 51.6799 17.4826 51.174 18.1052 51.174C18.727 51.174 19.2327 51.6799 19.2327 52.3015C19.2327 53.2365 19.9907 53.9944 20.9256 53.9944C21.8604 53.9944 22.6184 53.2365 22.6184 52.3015C22.6184 49.8129 20.5937 47.7883 18.1052 47.7883C15.6158 47.7883 13.5903 49.8129 13.5903 52.3015C13.5903 53.2364 14.3485 53.9944 15.2832 53.9944Z" fill="#1F2B75"/><path d="M52.6247 44.4504C54.8033 44.4504 54.8069 41.0647 52.6247 41.0647C50.4462 41.0647 50.4427 44.4504 52.6247 44.4504Z" fill="#1F2B75"/></svg>