<svg xmlns="http://www.w3.org/2000/svg" width="93" height="89" viewBox="0 0 93 89" fill="none"><rect x="12" width="81" height="64" rx="16" fill="#ECECEC"/><path d="M27.5392 80.969V67.3181L15.7133 60.4778L3.88745 67.3181V80.969L15.7133 87.7945L27.5392 80.969Z" fill="#1CC869"/><path d="M51.2058 80.969V67.3181L39.38 60.4778L27.5393 67.3181V80.969L39.38 87.7945L51.2058 80.969Z" fill="white"/><path d="M74.8575 80.969V67.3181L63.0317 60.4778L51.2058 67.3181V80.969L63.0317 87.7945L74.8575 80.969Z" fill="#1CC869"/><path d="M24.7645 34.5855V20.9346L12.9386 14.1091L1.11279 20.9346V34.5855L12.9386 41.4258L24.7645 34.5855Z" fill="#1CC869"/><path d="M63.0316 60.5074V46.8565L51.2057 40.031L39.3799 46.8565V60.5074L51.2057 67.3328L63.0316 60.5074Z" fill="#DCDCDC"/><path d="M75.4066 66.3535L64.1297 59.8397V55.6257C64.1297 55.0173 63.6252 54.5129 63.0169 54.5129C62.4085 54.5129 61.904 55.0173 61.904 55.6257V59.8397L52.3039 65.3891V54.5722L61.904 48.7261V51.3227C61.904 51.9311 62.4085 52.4355 63.0169 52.4355C63.6252 52.4355 64.1297 51.9311 64.1297 51.3227V46.8565C64.1297 46.4558 63.922 46.0849 63.5659 45.892L51.74 39.0665C51.3988 38.8737 50.9685 38.8737 50.6272 39.0665L38.8013 45.892C38.4601 46.0849 38.2375 46.4558 38.2375 46.8565V59.8397L27.5245 66.0271L16.2477 59.5132C15.9064 59.3204 15.4761 59.3204 15.1348 59.5132L3.30896 66.3387C2.96769 66.5316 2.74512 66.9025 2.74512 67.3032V80.9541C2.74512 81.3547 2.95285 81.7257 3.30896 81.9186L15.1348 88.744C15.3129 88.8479 15.5058 88.8924 15.6987 88.8924C15.8915 88.8924 16.0844 88.8479 16.2625 88.744L20.7139 86.177C21.248 85.8655 21.4261 85.1829 21.1145 84.6636C20.8029 84.1294 20.1204 83.9514 19.601 84.263L16.8115 85.8655V75.0189L26.4117 69.1728V80.3309L23.3254 82.1115C22.7912 82.423 22.6131 83.1056 22.9247 83.6249C23.2363 84.1591 23.9189 84.3371 24.4382 84.0255L27.5245 82.245L38.8013 88.7589C38.9794 88.8627 39.1723 88.9072 39.3652 88.9072C39.5581 88.9072 39.751 88.8627 39.929 88.7589L51.2059 82.245L62.4827 88.7589C62.6608 88.8627 62.8537 88.9072 63.0466 88.9072C63.2395 88.9072 63.4324 88.8627 63.6104 88.7589L75.4362 81.9334C75.7775 81.7405 76.0001 81.3695 76.0001 80.9689V67.318C75.9704 66.9174 75.7627 66.5464 75.4066 66.3535ZM63.0317 73.1048L53.4909 67.3032L63.0466 61.7835L72.5874 67.2883L63.0317 73.1048ZM39.3503 61.7835L48.906 67.3032L39.3652 73.1048L29.8095 67.2883L39.3503 61.7835ZM50.093 54.5722V65.3891L40.4929 59.8397V48.7261L50.093 54.5722ZM40.4929 75.0337L50.093 69.1876V80.3309L40.4929 85.8803V75.0337ZM51.2059 41.3071L60.7615 46.8268L51.2059 52.6433L41.6502 46.8268L51.2059 41.3071ZM15.7135 61.7686L25.2691 67.2883L15.7135 73.1048L6.15785 67.2883L15.7135 61.7686ZM5.00049 69.1876L14.6006 75.0337V85.8803L5.00049 80.3309V69.1876ZM28.6522 69.1876L38.2523 75.0337V85.8803L28.6522 80.3309V69.1876ZM52.3187 69.1876L61.9189 75.0337V85.8803L52.3187 80.3309V69.1876ZM64.1446 85.8803V75.0337L73.7447 69.1876V80.3309L64.1446 85.8803Z" fill="#1F2B75"/><path d="M24.3192 49.3047C23.8148 49.6608 23.6961 50.3433 24.0373 50.8478L25.4024 52.8064C21.9155 52.5245 19.2298 49.5272 19.3782 45.9958C19.4079 45.3874 18.9182 44.8681 18.3099 44.8384C17.6867 44.8088 17.1822 45.2984 17.1525 45.9068C16.9745 50.3878 20.2091 54.2309 24.527 54.9431L22.88 56.1895C22.3903 56.5604 22.2864 57.2578 22.6574 57.7475C22.88 58.0442 23.2064 58.1926 23.5477 58.1926C23.7851 58.1926 24.0225 58.1184 24.2154 57.97L28.2661 54.9134C28.741 54.5573 28.8448 53.8748 28.5036 53.3851L25.8624 49.5717C25.5211 49.0821 24.8237 48.9486 24.3192 49.3047Z" fill="#1F2B75"/><path d="M12.9387 42.5387C13.1316 42.5387 13.3245 42.4941 13.5025 42.3903L25.3284 35.5648C25.6697 35.3719 25.8922 35.001 25.8922 34.6003V20.9494C25.8922 20.5488 25.6845 20.1779 25.3284 19.985L13.5025 13.1447C13.1613 12.9518 12.731 12.9518 12.3897 13.1447L9.55564 14.7768C9.02148 15.0884 8.84342 15.771 9.15502 16.2903C9.46661 16.8096 10.1492 17.0025 10.6685 16.6909L12.9387 15.3852L22.4943 20.9049L12.9387 26.7214L3.38305 20.9049L6.85513 18.9018C7.3893 18.5902 7.56736 17.9077 7.25576 17.3883C6.94416 16.8542 6.26162 16.6761 5.74229 16.9877L0.549004 19.985C0.207731 20.163 0 20.534 0 20.9346V34.5855C0 34.9861 0.207731 35.3571 0.563842 35.55L12.3897 42.3754C12.5529 42.4793 12.7458 42.5387 12.9387 42.5387ZM14.0515 39.4969V28.6503L23.6517 22.8042V33.9475L14.0515 39.4969ZM2.22569 22.8042L11.8258 28.6503V39.4969L2.22569 33.9475V22.8042Z" fill="#1F2B75"/></svg>