<svg width="94" height="89" viewBox="0 0 94 89" fill="none" xmlns="http://www.w3.org/2000/svg">
<rect x="13" width="81" height="64" rx="16" fill="#ECECEC"/>
<path d="M29.598 74.541H46.1302V87.4828H29.598V74.541Z" fill="#DCDCDC"/>
<path d="M2.59766 63.4219L1.11328 66.6269V73.5867C1.11328 75.2264 2.44239 76.5555 4.08203 76.5555H71.918C73.5576 76.5555 74.8867 75.2264 74.8867 73.5867V66.6269L73.4023 63.4219H2.59766Z" fill="#DCDCDC"/>
<path d="M71.918 27.5059H4.08203C2.44239 27.5059 1.11328 28.835 1.11328 30.4746V66.6272H74.8867V30.4746C74.8867 28.835 73.5576 27.5059 71.918 27.5059Z" fill="#1CC869"/>
<path d="M37.8641 60.5861C48.5239 60.5861 57.1654 51.9446 57.1654 41.2847C57.1654 30.6249 48.5239 21.9834 37.8641 21.9834C27.2042 21.9834 18.5627 30.6249 18.5627 41.2847C18.5627 51.9446 27.2042 60.5861 37.8641 60.5861Z" fill="white"/>
<path d="M71.918 26.3926H51.8918C51.8707 26.3926 51.8503 26.3945 51.8295 26.3957C51.0956 25.7068 50.3071 25.0672 49.4662 24.4853C48.9603 24.1357 48.2671 24.2621 47.9171 24.7673C47.5674 25.2729 47.6936 25.9666 48.1991 26.3164C53.1164 29.7183 56.0519 35.314 56.0519 41.2846C56.0519 51.3135 47.8928 59.4726 37.8639 59.4726C27.8351 59.4726 19.676 51.3135 19.676 41.2846C19.676 31.2558 27.8351 23.0967 37.8639 23.0967C39.8547 23.0967 41.8113 23.416 43.6791 24.0458C44.2618 24.2428 44.8934 23.9293 45.0897 23.3466C45.2862 22.764 44.9731 22.1324 44.3905 21.936C42.293 21.2287 40.0971 20.8701 37.8639 20.8701C26.6073 20.8701 17.4494 30.028 17.4494 41.2846C17.4494 52.5412 26.6073 61.6992 37.8639 61.6992C49.1205 61.6992 58.2785 52.5412 58.2785 41.2846C58.2785 36.6317 56.689 32.1827 53.8711 28.6191H71.918C72.9411 28.6191 73.7734 29.4514 73.7734 30.4746V65.5139H64.9678C64.3529 65.5139 63.8545 66.0122 63.8545 66.6272C63.8545 67.2421 64.3529 67.7404 64.9678 67.7404H73.7734V73.5871C73.7734 74.6103 72.9411 75.4426 71.918 75.4426H4.08203C3.05885 75.4426 2.22656 74.6103 2.22656 73.5871V67.7404H59.361C59.976 67.7404 60.4743 67.2421 60.4743 66.6272C60.4743 66.0122 59.976 65.5139 59.361 65.5139H2.22656V30.4746C2.22656 29.4514 3.05885 28.6191 4.08203 28.6191H17.358C17.973 28.6191 18.4713 28.1208 18.4713 27.5059C18.4713 26.8909 17.973 26.3926 17.358 26.3926H4.08203C1.83113 26.3926 0 28.2239 0 30.4746V73.587C0 75.8377 1.83113 77.669 4.08203 77.669H28.4846V86.3695H25.1236C24.5087 86.3695 24.0104 86.8678 24.0104 87.4828C24.0104 88.0978 24.5087 88.5961 25.1236 88.5961H50.6041C51.2191 88.5961 51.7174 88.0978 51.7174 87.4828C51.7174 86.8678 51.2191 86.3695 50.6041 86.3695H47.2432V77.669H71.918C74.1689 77.669 76 75.8377 76 73.587V30.4746C76 28.2239 74.1689 26.3926 71.918 26.3926ZM45.0168 86.3697H30.7111V77.6691H45.0168V86.3697Z" fill="#1F2B75"/>
<path d="M29.9315 32.3916C29.694 31.133 28.592 30.2192 27.311 30.2192H26.1205C25.5055 30.2192 25.0072 30.7175 25.0072 31.3325C25.0072 31.9475 25.5055 32.4458 26.1205 32.4458H27.311C27.5225 32.4458 27.7043 32.5966 27.7435 32.8046L31.0382 50.2555C31.1375 50.7814 31.5971 51.1621 32.1322 51.1621H32.8833C32.5545 51.5297 32.3528 52.0134 32.3528 52.5454C32.3528 53.6928 33.283 54.6231 34.4305 54.6231C35.5779 54.6231 36.5081 53.6928 36.5081 52.5454C36.5081 52.0134 36.3066 51.5297 35.9776 51.1621H40.5575C40.2287 51.5297 40.027 52.0134 40.027 52.5454C40.027 53.6928 40.9573 54.6231 42.1047 54.6231C43.2521 54.6231 44.1824 53.6928 44.1824 52.5454C44.1824 52.0134 43.9808 51.5297 43.6518 51.1621H44.6536C45.2686 51.1621 45.7669 50.6638 45.7669 50.0489C45.7669 49.4339 45.2686 48.9356 44.6536 48.9356H33.0546L32.6004 46.5298H45.0421C45.5771 46.5298 46.0362 46.1495 46.1359 45.6238L48.1119 35.1995C48.1131 35.1928 48.1145 35.1861 48.1155 35.1794C48.1819 34.7898 48.0739 34.3932 47.8191 34.0911C47.5642 33.789 47.1913 33.6158 46.796 33.6158H30.1626L29.9315 32.3916ZM31.5919 41.1861H34.6292L34.8571 44.3033H32.1806L31.5919 41.1861ZM39.5419 41.1861L39.3141 44.3033H37.0896L36.8617 41.1861H39.5419ZM36.699 38.9595L36.4712 35.8425H39.9324L39.7046 38.9595H36.699ZM41.5467 44.3033L41.7746 41.1861H44.7112L44.1203 44.3033H41.5467ZM45.1334 38.9595H41.9374L42.1652 35.8425H45.7243L45.1334 38.9595ZM34.2385 35.8425L34.4664 38.9595H31.1715L30.583 35.8425H34.2385Z" fill="#1F2B75"/>
<path d="M7.25134 57.5684H13.8362C14.4512 57.5684 14.9495 57.0701 14.9495 56.4551C14.9495 55.8401 14.4512 55.3418 13.8362 55.3418H7.25134C6.63637 55.3418 6.13806 55.8401 6.13806 56.4551C6.13806 57.0701 6.63637 57.5684 7.25134 57.5684Z" fill="#1F2B75"/>
<path d="M7.25134 62.5898H19.5381C20.1531 62.5898 20.6514 62.0915 20.6514 61.4766C20.6514 60.8616 20.1531 60.3633 19.5381 60.3633H7.25134C6.63637 60.3633 6.13806 60.8616 6.13806 61.4766C6.13806 62.0915 6.63637 62.5898 7.25134 62.5898Z" fill="#1F2B75"/>
<path d="M66.0439 32.8193C65.4289 32.8193 64.9306 33.3176 64.9306 33.9326V36.7189H62.1443C61.5293 36.7189 61.031 37.2172 61.031 37.8322C61.031 38.4472 61.5293 38.9455 62.1443 38.9455H64.9306V41.7318C64.9306 42.3468 65.4289 42.8451 66.0439 42.8451C66.6589 42.8451 67.1572 42.3468 67.1572 41.7318V38.9455H69.9433C70.5583 38.9455 71.0566 38.4472 71.0566 37.8322C71.0566 37.2172 70.5583 36.7189 69.9433 36.7189H67.1572V33.9326C67.1572 33.3178 66.6587 32.8193 66.0439 32.8193Z" fill="#1F2B75"/>
</svg>
