<svg xmlns="http://www.w3.org/2000/svg" width="94" height="88" viewBox="0 0 94 88" fill="none"><rect x="13" width="81" height="64" rx="16" fill="#ECECEC"/><path fill-rule="evenodd" clip-rule="evenodd" d="M49.2413 62.933C63.6707 62.933 75.4386 51.1653 75.4386 36.7312C75.4386 22.3016 63.6707 10.5339 49.2413 10.5339C34.8072 10.5339 23.0396 22.3016 23.0396 36.7312C23.0396 51.1653 34.8072 62.933 49.2413 62.933Z" fill="white"/><path fill-rule="evenodd" clip-rule="evenodd" d="M49.8216 56.6385C60.7374 56.6385 69.6387 47.7327 69.6387 36.817C69.6387 25.9012 60.7373 17 49.8216 17C38.9058 17 30 25.9012 30 36.817C30 47.7329 38.9058 56.6385 49.8216 56.6385Z" fill="#1CC869"/><path d="M50.4 44C46.6939 44 43.6419 41.2 43.2439 37.6H41.6C40.7164 37.6 40 36.8837 40 36C40 35.1163 40.7164 34.4 41.6 34.4H43.2439C43.6419 30.8 46.6939 28 50.4 28C52.4144 28 54.2377 28.8293 55.5427 30.161C56.1613 30.7921 56.151 31.8051 55.5198 32.4236C54.8886 33.0421 53.8757 33.0318 53.2573 32.4007C52.5293 31.6579 51.5195 31.2 50.4 31.2C48.4648 31.2 46.8506 32.5742 46.48 34.4H49.6C50.4837 34.4 51.2 35.1163 51.2 36C51.2 36.8837 50.4837 37.6 49.6 37.6H46.48C46.8507 39.4258 48.4648 40.8 50.4 40.8C51.5195 40.8 52.5293 40.3421 53.2573 39.5994C53.8757 38.9682 54.8886 38.9579 55.5198 39.5765C56.151 40.1949 56.1613 41.2078 55.5427 41.839C54.2377 43.1707 52.4142 44 50.4 44Z" fill="#1F2B75"/><path fill-rule="evenodd" clip-rule="evenodd" d="M31.914 56.379H49.0156C54.1629 56.379 54.1629 64.1577 49.0156 64.1577C54.1629 64.1577 54.1629 71.9365 49.0156 71.9365H47.1031C52.246 71.9365 52.246 79.7152 47.1031 79.7152H46.26C51.4029 79.7152 51.4029 87.4937 46.26 87.4937H37.4653H27.9206H21.4465C18.4157 83.9395 13.2951 85.0443 8.87988 85.0443V61.899C12.1857 61.899 16.916 62.751 19.281 60.0531L25.8172 37.374L27.4678 37.8488C32.442 39.2864 35.3307 44.5137 33.8975 49.4879L31.914 56.379Z" fill="#DCDCDC"/><path fill-rule="evenodd" clip-rule="evenodd" d="M0.790283 58.5305H15.6553V87.4974H0.790283V58.5305Z" fill="#1CC869"/><path d="M76 36.8109C76 42.9147 74.0018 48.6644 70.222 53.4389C66.5551 58.0705 61.3963 61.4027 55.6962 62.8216L55.1811 60.7527C66.1835 58.0137 73.8678 48.1683 73.8678 36.8107C73.8678 23.2029 62.7989 12.1321 49.1934 12.1321C35.5856 12.1321 24.5148 23.2029 24.5148 36.8107H22.3825C22.3825 22.0273 34.4099 10 49.1934 10C63.9745 10 76 22.0273 76 36.8109ZM51.8456 63.7468C52.9629 64.6823 53.5363 66.1111 53.5363 67.5297C53.5363 69.3848 52.5554 71.2575 50.661 72.0212C51.3325 72.8973 51.675 73.9995 51.675 75.0955C51.675 76.3465 51.2469 77.5206 50.4695 78.4016C50.232 78.6707 49.9202 78.9595 49.5211 79.2138C50.4035 80.1367 50.855 81.4031 50.855 82.6615C50.855 85.0711 49.1991 87.5106 46.034 87.5106H21.9037C21.5915 87.5106 21.2951 87.3736 21.0925 87.1362C20.0532 85.9175 18.673 85.2702 16.595 85.052V86.8891C16.595 87.4779 16.1176 87.9551 15.5289 87.9551H1.06605C0.477188 87.9551 0 87.4778 0 86.8891V58.7142C0 58.1254 0.477341 57.6482 1.06605 57.6482H15.5289C16.1178 57.6482 16.595 58.1255 16.595 58.7142V60.3516C17.5669 60.1299 18.2979 59.758 18.8389 59.2119L25.1262 37.3961C25.2046 37.1239 25.3878 36.8943 25.6359 36.7576C25.8836 36.6209 26.1756 36.5883 26.4478 36.6675L28.0533 37.1337C28.1867 37.1721 28.3184 37.2148 28.4494 37.2583C28.3611 33.4676 29.3068 29.7589 31.2267 26.4369C33.9971 21.6379 38.4709 18.2045 43.8235 16.7699C49.1772 15.3348 54.7682 16.0716 59.5672 18.8442C69.4734 24.5628 72.88 37.2762 67.1604 47.1842C64.0587 52.554 58.7927 56.1933 52.7676 57.2438C53.2764 58.0535 53.5365 59.0106 53.5365 59.964C53.5363 61.3824 52.9629 62.8114 51.8456 63.7468ZM30.6381 38.2865C32.092 39.1947 33.302 40.4625 34.1568 42.0084C35.3649 44.1936 35.7275 46.684 35.2062 49.0922C36.5453 50.6167 38.1156 51.9087 39.8862 52.9315C41.7323 53.9967 43.7187 54.7301 45.7904 55.1149H48.7188C49.3424 55.1149 49.9066 55.211 50.4118 55.3817C56.636 54.9672 62.1953 51.5177 65.3144 46.1182C70.446 37.2284 67.3894 25.8215 58.5012 20.6904C54.1953 18.2028 49.1788 17.5418 44.3758 18.8292C39.5731 20.1165 35.5591 23.197 33.0732 27.5033C31.1689 30.7975 30.3335 34.5148 30.6381 38.2865ZM33.4973 55.1147H39.4294C39.2249 55.0056 39.0216 54.894 38.8202 54.7777C37.246 53.8685 35.8134 52.7686 34.5397 51.4987L33.4973 55.1147ZM14.4627 59.7803H2.13209V85.8227H14.4627V59.7803ZM51.4042 59.9638C51.4042 58.6114 50.5737 57.247 48.7187 57.247H32.0807C31.7457 57.247 31.4302 57.0895 31.2288 56.8218C31.0275 56.5541 30.9635 56.2075 31.0563 55.8856L32.9899 49.1786C33.5853 47.1122 33.337 44.9321 32.2909 43.0399C31.2444 41.1474 29.5294 39.7773 27.4612 39.1819L26.8791 39.0128L20.8175 60.0453C20.7743 60.1948 20.6991 60.3331 20.5969 60.4506C19.6587 61.5269 18.3428 62.2088 16.5951 62.5243V82.9058C18.4996 83.0722 20.6561 83.6061 22.3746 85.3782H46.0342C47.8917 85.3782 48.7231 84.0136 48.7231 82.6614C48.7231 81.3091 47.8917 79.9445 46.0342 79.9445H42.0548V77.8123H46.034H46.854C47.7113 77.8123 48.3899 77.536 48.8708 76.9909C49.2978 76.5069 49.5428 75.816 49.5428 75.0955C49.5428 73.7432 48.7113 72.3788 46.8538 72.3788H42.0548V70.2465H46.854H48.7185C50.5737 70.2465 51.4041 68.8819 51.4041 67.5297C51.4041 66.1775 50.5736 64.8129 48.7185 64.8129H42.0548V62.6806H48.7187C50.5739 62.6806 51.4042 61.3162 51.4042 59.9638Z" fill="#1F2B75"/></svg>