<svg xmlns="http://www.w3.org/2000/svg" width="95" height="89" viewBox="0 0 95 89" fill="none"><rect x="13.9844" width="81" height="64" rx="16" fill="#ECECEC"/><path d="M63.5977 30.9624H25.1976C23.868 30.9624 22.7976 32.0328 22.7976 33.3624V54.9626C22.7976 56.2921 23.868 57.3625 25.1976 57.3625H63.5977C64.9273 57.3625 65.9977 56.2921 65.9977 54.9626V33.3624C65.9977 32.0328 64.9273 30.9624 63.5977 30.9624Z" fill="#1CC869"/><path d="M31.1977 52.5627C31.1977 50.5745 29.5859 48.9627 27.5977 48.9627V39.3626C29.5859 39.3626 31.1977 37.7509 31.1977 35.7627H57.5977C57.5977 37.7509 59.2095 39.3626 61.1977 39.3626V48.9627C59.2095 48.9627 57.5977 50.5745 57.5977 52.5627H31.1977Z" fill="#1CC869"/><path d="M10.7976 39.3626V26.1627L24.4945 22.9302C26.8945 22.33 32.7295 21.7711 37.1977 24.9626L45.5977 30.9626H25.1976C23.8681 30.9626 22.7976 32.033 22.7976 33.3627V35.7627H31.1977C33.1921 35.7627 34.7977 37.3683 34.7977 39.3626C34.7977 41.357 33.1921 42.9627 31.1977 42.9627H20.3976C15.0709 42.9627 10.7976 39.3626 10.7976 39.3626Z" fill="white"/><path d="M47.9976 44.1628C47.9976 46.151 46.3859 47.7629 44.3976 47.7629C42.4094 47.7629 40.7976 46.151 40.7976 44.1628C40.7976 42.1746 42.4094 40.5627 44.3976 40.5627C46.3859 40.5627 47.9976 42.1746 47.9976 44.1628Z" fill="#1CC869"/><path d="M61.1978 83.7628L46.3009 86.9951C43.9009 87.5954 38.066 88.1543 33.5978 84.9627L16.1654 73.7981C14.4859 72.7224 13.8505 70.6077 14.8477 68.8805C15.8449 67.1532 17.8466 67.0187 19.7654 67.5627L34.9385 71.8639C34.8981 71.5346 34.7977 71.0608 34.7977 70.5627C34.7977 68.5683 36.4034 66.9626 38.3978 66.9626H51.5978C56.9246 66.9626 61.1978 70.5627 61.1978 70.5627L61.1978 83.7628Z" fill="white"/><path d="M1.19751 22.5625H10.7975V44.1626H1.19751V22.5625Z" fill="#DCDCDC"/><path d="M61.1978 65.7627H70.7978V87.3627H61.1978V65.7627Z" fill="#DCDCDC"/><path d="M8.86647e-06 22.5626V44.158C-0.00251148 44.8207 0.532607 45.36 1.19533 45.3627H10.7977C11.4604 45.3603 11.9955 44.8207 11.993 44.158V41.6385C13.8524 42.7576 16.8687 44.158 20.4001 44.158H31.1978C33.8362 44.158 36.0001 42.0058 36.0001 39.3673C36.0001 36.7288 33.8362 34.565 31.1978 34.565H23.9954V33.3603C23.9954 32.6747 24.5169 32.165 25.2024 32.165H63.6025C64.2881 32.165 64.7978 32.6747 64.7978 33.3603V54.9651C64.7978 55.6507 64.2881 56.1604 63.6025 56.1604H25.2024C24.5169 56.1604 23.9954 55.6507 23.9954 54.9651V47.765C23.9605 46.2001 21.6301 46.2001 21.5954 47.765V54.9651C21.5954 56.9387 23.2288 58.5627 25.2024 58.5627H63.6025C65.5762 58.5627 67.1979 56.9387 67.1979 54.9651V33.3603C67.1979 31.3866 65.5762 29.7649 63.6025 29.7649H45.9845L37.8962 23.9876C33.6886 20.9822 28.2152 20.8165 24.1993 21.7657L11.993 24.6509V22.5626C11.9906 21.9035 11.4567 21.3699 10.7977 21.3673H1.1379C0.466634 21.4289 -0.000589812 21.9456 8.86647e-06 22.5626ZM36.504 25.9376L41.8571 29.7649H25.2024C23.2288 29.7649 21.5954 31.3866 21.5954 33.3603V35.7603C21.5955 36.4248 22.1356 36.9627 22.8001 36.9627L31.1978 36.965C32.5481 36.965 33.6001 38.0171 33.6001 39.3674C33.6001 40.7178 32.5481 41.7675 31.1978 41.7675H20.4001C16.3325 41.7674 12.9621 39.4761 11.993 38.7557V27.1095L24.7758 24.0955C28.6766 23.1757 33.3525 23.6845 36.504 25.9376ZM2.40001 23.7673H9.60238V42.9627H2.40001V23.7673ZM38.2759 34.565C36.7123 34.6802 36.833 37.0118 38.4001 36.965H56.5391C56.9999 38.524 57.9924 39.8304 59.9955 40.4304V47.9215C58.178 48.356 57.011 49.8014 56.5502 51.3603H32.2366C31.9674 50.1774 31.0368 48.5583 28.7978 47.9109C28.8399 46.0081 26.3639 46.242 26.3977 47.7648V48.9601C26.3953 49.6265 26.9361 50.1674 27.6024 50.1649C28.9421 50.1649 29.9931 51.2251 29.9931 52.5648C29.9955 53.2275 30.535 53.7626 31.1978 53.7601H57.5955C58.2582 53.7625 58.7975 53.2275 58.8002 52.5648C58.8002 51.2251 59.8629 50.1649 61.2025 50.1649C61.8652 50.1625 62.4004 49.6229 62.3979 48.9601V39.3672C62.4015 38.7035 61.8662 38.1627 61.2025 38.1601C59.8629 38.1601 58.8002 37.0997 58.8002 35.76C58.7978 35.0973 58.2582 34.5622 57.5955 34.5647H38.4001C38.3588 34.5623 38.3173 34.5626 38.2759 34.565ZM44.3978 39.3673C41.761 39.3673 39.5954 41.5212 39.5954 44.158C39.5954 46.7948 41.761 48.9603 44.3978 48.9603C47.0345 48.9603 49.1978 46.7948 49.1978 44.158C49.1978 41.5212 47.0345 39.3673 44.3978 39.3673ZM44.3978 41.7674C45.7375 41.7674 46.7978 42.8183 46.7978 44.158C46.7978 45.4977 45.7375 46.558 44.3978 46.558C43.0581 46.558 41.9954 45.4977 41.9954 44.158C41.9954 42.8183 43.0581 41.7674 44.3978 41.7674ZM46.5915 88.1596L46.5562 88.1687L59.9953 85.2508V87.3602C59.9929 88.0275 60.535 88.5687 61.2023 88.5649H70.7953C71.4617 88.5672 72.0025 88.0266 72 87.3602V65.7649C72.0038 65.0976 71.4628 64.5552 70.7955 64.5578H61.2025C60.5343 64.5542 59.9916 65.0967 59.9955 65.7649V68.2775C58.1353 67.1592 55.1256 65.7649 51.6001 65.7649H38.4001C35.7617 65.7649 33.6001 67.9264 33.6001 70.5648C33.6001 73.2033 35.7617 75.3673 38.4001 75.3673H49.1978C50.7994 75.3673 50.7994 72.9649 49.1978 72.9649H38.4001C37.0498 72.9649 36.0001 71.9152 36.0001 70.5648C36.0001 69.2145 37.0498 68.1649 38.4001 68.1649H51.6001C55.6621 68.1649 59.0226 70.4405 59.9955 71.1626V82.797L46.0455 85.8228C46.0337 85.8252 46.0219 85.8273 46.0101 85.8318C43.8841 86.3635 38.3082 86.8532 34.2702 83.9709L16.8116 72.789C15.7529 72.1109 15.1893 70.6206 15.8858 69.4818C16.7162 68.1239 18.4577 68.4452 19.4412 68.7201L29.6975 71.5864C31.2604 72.0577 31.9248 69.6842 30.3444 69.2755L20.0881 66.4092C17.3773 65.6515 15.0166 66.23 13.8092 68.2819C12.4708 70.5566 13.3525 73.4248 15.5178 74.8116L32.9003 85.942C37.8254 89.4579 43.9178 88.8284 46.5915 88.1596ZM62.3978 66.9603H69.6002V86.1651H62.3978C62.4328 79.7798 62.3978 73.3847 62.3978 66.9603Z" fill="#1F2B75"/></svg>