<svg xmlns="http://www.w3.org/2000/svg" width="180" height="36" viewBox="0 0 180 36" fill="none"><path d="M90.0612 6.94218H95.1531L98.8148 21.8176L102.905 6.91357H106.853L110.944 21.8176L114.606 6.91357H119.698L113.833 28.1968H108.312L104.879 15.6672L101.418 28.2254H95.8969L90.0612 6.94218Z" fill="white"></path><path d="M133.114 24.8784H125.219L124.16 28.2254H118.868L126.077 6.94214H132.256L139.465 28.2254H134.172L133.114 24.8784ZM131.655 20.3014L129.166 12.4918L126.677 20.3014H131.655Z" fill="white"></path><path d="M162.579 28.1968H157.716V15.8388L152.223 24.8498H151.68L146.187 15.8388V28.1968H141.324V6.94214H146.187L151.937 16.3823L157.687 6.94214H162.55V28.1968H162.579Z" fill="white"></path><path d="M180 23.5339V28.2254H166.669V6.94214H179.857V11.6336H171.532V15.1522H179.113V19.7579H171.532V23.5339H180Z" fill="white"></path><path d="M84.6466 22.7044C84.6466 22.6758 76.3222 11.462 71.8882 7.31411C71.8595 7.2855 71.8309 7.25689 71.8023 7.22829C70.8583 6.34148 69.5996 5.76935 68.1979 5.76935C66.8248 5.76935 65.5947 6.28427 64.6507 7.14247C62.3908 9.25935 58.157 15.0951 58.157 15.0951C58.157 15.0951 53.6372 8.80164 51.6061 6.14124V6.16985C50.6335 4.93977 49.1746 4.11018 47.4868 4.11018C45.5129 4.11018 43.8538 5.19722 42.9384 6.77058H42.9098L36.9596 16.3538C36.9596 16.3538 32.8403 9.11632 30.3801 5.11141C29.5505 3.70969 28.0344 2.76567 26.2894 2.76567C24.4872 2.76567 22.9424 3.7669 22.1414 5.25444L22.1128 5.22583L15.991 16.7256C15.991 16.7256 11.7573 9.00189 9.2399 3.22338H9.21129C8.55334 1.39256 6.80835 0.0766602 4.74868 0.0766602C2.11688 0.0766602 0 2.19354 0 4.82534C0 5.25444 0.0858196 5.65493 0.171639 6.05542C0.171639 6.05542 0.228852 6.22706 0.314672 6.51312C0.343278 6.57034 0.343278 6.65616 0.371885 6.71337C1.57336 10.0889 7.58072 26.3374 15.991 35.749C15.991 35.749 25.66 20.8164 26.4324 18.8711C26.4324 18.8711 35.0144 32.3448 37.0454 34.004C37.0454 34.004 46.2853 19.9296 47.4868 17.4408L58.0712 32.2304C58.0712 32.2304 65.1942 19.6435 68.5984 16.411C68.5984 16.411 73.2899 22.1037 77.352 27.9394C78.153 29.1981 79.5547 29.9991 81.128 29.9991C83.6168 29.9991 85.6479 27.968 85.6479 25.4792C85.6765 24.4494 85.276 23.4768 84.6466 22.7044Z" fill="url(#paint0_linear_238_439)"></path><defs><linearGradient id="paint0_linear_238_439" x1="85.6493" y1="0.0766602" x2="85.6493" y2="35.749" gradientUnits="userSpaceOnUse"><stop stop-color="#20E87A"></stop><stop offset="1" stop-color="#18A457"></stop></linearGradient></defs></svg>