<svg xmlns="http://www.w3.org/2000/svg" width="95" height="89" viewBox="0 0 95 89" fill="none"><rect x="14" width="81" height="64" rx="16" fill="#ECECEC"/><path d="M52.0677 36.2395V20.5095H41.7266V24.8531C41.7266 26.4183 40.4578 27.6872 38.8926 27.6872H14.6196C13.0543 27.6872 11.7855 26.4183 11.7855 24.8531V20.5095H1.44458V85.4663H52.0677C45.0128 85.4663 39.2942 79.7475 39.2942 72.6928C39.2942 65.6394 45.0129 59.9206 52.0677 59.9206V48.945V36.2395Z" fill="#DCDCDC"/><path d="M32.8602 20.509C32.8602 17.1378 30.1273 14.4048 26.756 14.4048C23.3848 14.4048 20.6518 17.1378 20.6518 20.509H11.7852V24.854C11.7852 26.419 13.0539 27.6877 14.6188 27.6877H38.8935C40.4585 27.6877 41.7272 26.419 41.7272 24.854V20.509H32.8602Z" fill="#1CC869"/><path d="M64.1657 76.9422C66.5007 70.2828 62.9951 62.9914 56.3357 60.6564C49.6763 58.3214 42.385 61.8269 40.0499 68.4863C37.7149 75.1457 41.2205 82.4371 47.8799 84.7721C54.5393 87.1071 61.8307 83.6015 64.1657 76.9422Z" fill="white"/><path d="M52.5 78C50.1837 78 48.2762 76.25 48.0275 74H47C46.4477 74 46 73.5523 46 73C46 72.4477 46.4477 72 47 72H48.0275C48.2762 69.75 50.1837 68 52.5 68C53.759 68 54.8986 68.5183 55.7142 69.3506C56.1008 69.7451 56.0944 70.3782 55.6999 70.7647C55.3054 71.1513 54.6723 71.1449 54.2858 70.7504C53.8308 70.2862 53.1997 70 52.5 70C51.2905 70 50.2816 70.8589 50.05 72H52C52.5523 72 53 72.4477 53 73C53 73.5523 52.5523 74 52 74H50.05C50.2817 75.1411 51.2905 76 52.5 76C53.1997 76 53.8308 75.7138 54.2858 75.2496C54.6723 74.8551 55.3054 74.8487 55.6999 75.2353C56.0944 75.6218 56.1008 76.2549 55.7142 76.6494C54.8986 77.4817 53.7589 78 52.5 78Z" fill="#1F2B75"/><path d="M10.4573 35.0959H19.5803V43.9301H10.4573V35.0959Z" fill="#1CC869"/><path d="M10.4573 51.7712H19.5803V60.6054H10.4573V51.7712Z" fill="#1CC869"/><path d="M10.4573 68.5193H19.5803V77.209H10.4573V68.5193Z" fill="#1CC869"/><path d="M10.4573 35.0959H19.5803V43.9301H10.4573V35.0959Z" fill="#1CC869"/><path d="M10.4573 51.7712H19.5803V60.6054H10.4573V51.7712Z" fill="#1CC869"/><path d="M10.4573 68.5193H19.5803V77.209H10.4573V68.5193Z" fill="#1CC869"/><path d="M53.5119 58.5487V48.945C53.5119 48.1473 52.8652 47.5006 52.0676 47.5006C51.27 47.5006 50.6232 48.1473 50.6232 48.945V58.5483C37.9089 59.8916 33.2558 76.2891 43.486 84.0219H2.88868V21.9539H10.3408V24.8543C10.3408 27.2132 12.2598 29.1322 14.6186 29.1322H38.8933C41.2521 29.1322 43.1712 27.2132 43.1712 24.8543V21.9539H50.6232V36.2397C50.6926 38.1503 53.4403 38.1561 53.5119 36.2397V20.5095C53.5119 19.7118 52.8652 19.0652 52.0676 19.0652L34.166 19.0648C32.4656 10.9756 21.0433 10.9812 19.3461 19.0648L1.44434 19.0652C0.646776 19.0652 0 19.7118 0 20.5095V85.4663C0 86.264 0.646776 86.9106 1.44434 86.9106C1.44708 86.9164 52.0634 86.9063 52.0676 86.9108C70.0222 86.3694 71.2411 60.8651 53.5119 58.5487ZM13.2297 21.9534H20.6518C21.4493 21.9534 22.0961 21.3068 22.0961 20.5091C22.3307 14.3351 31.1829 14.3377 31.416 20.5091C31.416 21.3068 32.0626 21.9534 32.8603 21.9534H40.2822V24.8531C40.2822 25.6195 39.6588 26.2428 38.8926 26.2428H14.6195C13.8531 26.2428 13.2297 25.6195 13.2297 24.8531V21.9534ZM52.0695 84.0219C37.0477 83.2715 37.0652 62.1048 52.0741 61.3646C67.0806 61.9436 67.0652 83.4543 52.0695 84.0219Z" fill="#1F2B75"/><path d="M42.8825 34.8901H26.9098C24.9955 34.9612 24.9969 37.7085 26.9098 37.7788H42.8825C44.7968 37.7078 44.7954 34.9605 42.8825 34.8901Z" fill="#1F2B75"/><path d="M42.8825 41.1482H26.9098C24.9955 41.2193 24.9969 43.9665 26.9098 44.0369H42.8825C44.7968 43.9658 44.7954 41.2185 42.8825 41.1482Z" fill="#1F2B75"/><path d="M44.3268 53.0598C44.3268 52.2621 43.68 51.6155 42.8825 51.6155H26.9098C24.9955 51.6865 24.9969 54.4338 26.9098 54.5042H42.8825C43.68 54.5042 44.3268 53.8575 44.3268 53.0598Z" fill="#1F2B75"/><path d="M40.0449 59.3174C40.0449 58.5197 39.3982 57.873 38.6006 57.873H26.9098C24.9955 57.9441 24.9969 60.6914 26.9098 60.7617H38.6006C39.3983 60.7617 40.0449 60.1151 40.0449 59.3174Z" fill="#1F2B75"/><path d="M21.0246 35.096C21.0246 34.2982 20.3779 33.6516 19.5803 33.6516H10.4573C9.65971 33.6516 9.01294 34.2982 9.01294 35.096V43.9303C9.01294 44.728 9.65971 45.3746 10.4573 45.3746H19.5803C20.3779 45.3746 21.0246 44.728 21.0246 43.9303V35.096ZM18.136 42.4858H11.9016V36.5401H18.136V42.4858Z" fill="#1F2B75"/><path d="M21.0246 51.7715C21.0246 50.9738 20.3779 50.3271 19.5803 50.3271H10.4573C9.65971 50.3271 9.01294 50.9738 9.01294 51.7715V60.6056C9.01294 61.4034 9.65971 62.05 10.4573 62.05H19.5803C20.3779 62.05 21.0246 61.4034 21.0246 60.6056V51.7715ZM18.136 59.1613H11.9016V53.2158H18.136V59.1613Z" fill="#1F2B75"/><path d="M19.5803 67.075H10.4573C9.65971 67.075 9.01294 67.7216 9.01294 68.5193V77.209C9.01294 78.0067 9.65971 78.6534 10.4573 78.6534H19.5803C20.3779 78.6534 21.0246 78.0067 21.0246 77.209V68.5193C21.0246 67.7216 20.3779 67.075 19.5803 67.075ZM18.136 75.7647H11.9016V69.9636H18.136V75.7647Z" fill="#1F2B75"/><path d="M33.3738 68.3633H26.9098C24.9955 68.4343 24.9969 71.1816 26.9098 71.252H33.3738C35.2881 71.1809 35.2867 68.4336 33.3738 68.3633Z" fill="#1F2B75"/><path d="M33.3738 74.6211H26.9098C24.9955 74.6922 24.9969 77.4394 26.9098 77.5098H33.3738C35.2881 77.4387 35.2867 74.6916 33.3738 74.6211Z" fill="#1F2B75"/><path d="M25.4223 21.2913C25.7249 22.0177 26.5803 22.3743 27.3087 22.0727C29.0403 21.2559 28.0053 18.7585 26.2037 19.405C25.4772 19.705 25.1196 20.5651 25.4223 21.2913Z" fill="#1F2B75"/><path d="M53.4009 41.9122C53.098 41.1857 52.2429 40.8294 51.5146 41.1308C49.7831 41.9477 50.818 44.445 52.6195 43.7985C53.3493 43.4972 53.6991 42.6404 53.4009 41.9122Z" fill="#1F2B75"/></svg>