<svg xmlns="http://www.w3.org/2000/svg" width="94" height="88" viewBox="0 0 94 88" fill="none"><rect x="13.0034" width="81" height="64" rx="16" fill="#ECECEC"/><path d="M50.6225 22.7495H21.3743C19.5105 22.7495 17.9995 24.2605 17.9995 26.1243V46.3731C17.9995 48.2369 19.5105 49.7479 21.3743 49.7479H50.6225C52.4864 49.7479 53.9973 48.2369 53.9973 46.3731V26.1243C53.9973 24.2605 52.4864 22.7495 50.6225 22.7495Z" fill="#1CC869"/><path d="M21.3743 22.7495H50.6225C51.5176 22.7495 52.376 23.1051 53.0089 23.738C53.6418 24.3709 53.9973 25.2293 53.9973 26.1243V29.4991C53.9973 30.6925 53.5233 31.837 52.6794 32.6809C51.8355 33.5248 50.691 33.9988 49.4976 33.9988H22.4992C21.3058 33.9988 20.1613 33.5248 19.3175 32.6809C18.4736 31.837 17.9995 30.6925 17.9995 29.4991V26.1243C17.9995 25.2293 18.3551 24.3709 18.988 23.738C19.6209 23.1051 20.4793 22.7495 21.3743 22.7495Z" fill="#1CC869"/><path d="M43.8728 31.749H48.3725V36.2488H43.8728V31.749Z" fill="white"/><path d="M28.1238 36.2488H23.6241V31.7491H28.1238V36.2488Z" fill="white"/><path d="M50.3647 57.1299L44.9021 48.8751C44.4156 48.1408 43.7245 47.5651 42.9143 47.2192L32.7359 42.8781C31.1955 42.2214 29.5023 42.0075 27.847 42.2605L14.962 44.2359L8.31026 43.0581L4.75098 63.2473L9.60618 64.1033C10.8344 67.2104 13.1678 69.7537 16.1578 71.2444L30.6424 78.4654L37.9095 82.0651L50.3647 57.1299Z" fill="white"/><path d="M1.12891 64.3857L5.43515 40.0085L10.9754 40.9872L6.6692 65.3644L1.12891 64.3857Z" fill="#DCDCDC"/><path d="M41.354 78.462L55.8386 71.241C58.8286 69.7504 61.162 67.207 62.3902 64.1L67.2454 63.2473L63.6862 43.0581L57.0344 44.2359L45.5399 43.8287" fill="white"/><path d="M41.1967 65.2068L53.1974 73.1466C53.567 73.3913 53.9812 73.5607 54.4163 73.6453C54.8514 73.7299 55.299 73.728 55.7333 73.6396C56.1677 73.5513 56.5804 73.3782 56.9478 73.1303C57.3153 72.8824 57.6303 72.5645 57.8749 72.1949C58.3676 71.4486 58.5439 70.5374 58.3653 69.6613C58.1866 68.7851 57.6676 68.0157 56.9221 67.5219L40.0369 56.3457" fill="white"/><path d="M41.1236 65.1597L51.3211 71.9093C51.6908 72.1539 52.0086 72.4689 52.2565 72.8363C52.5044 73.2038 52.6775 73.6165 52.7659 74.0509C52.8542 74.4852 52.8562 74.9327 52.7716 75.3678C52.687 75.8029 52.5175 76.2171 52.2728 76.5867C51.7786 77.3328 51.0084 77.8521 50.1315 78.0303C49.2545 78.2086 48.3427 78.0312 47.5965 77.5373L40.092 72.5707" fill="white"/><path d="M23.2595 77.617L36.3931 86.3082C37.1395 86.802 38.0514 86.9792 38.9283 86.8007C39.8053 86.6222 40.5755 86.1027 41.0694 85.3565C41.5633 84.6101 41.7404 83.6982 41.562 82.8212C41.3835 81.9443 40.864 81.1741 40.1178 80.6802L38.2481 79.4461L41.9941 81.9209C42.3637 82.1656 42.7779 82.3351 43.213 82.4197C43.6481 82.5043 44.0957 82.5024 44.53 82.414C44.9644 82.3256 45.3771 82.1526 45.7445 81.9047C46.112 81.6568 46.427 81.3389 46.6716 80.9693C47.1654 80.2229 47.3426 79.311 47.1641 78.434C46.9857 77.5571 46.4662 76.7869 45.7199 76.2929L40.0953 72.5671" fill="white"/><path d="M51.3209 71.9092L41.0031 65.0798C40.8801 64.9906 40.7403 64.9273 40.5922 64.8937C40.444 64.86 40.2906 64.8567 40.1412 64.884C39.9917 64.9112 39.8494 64.9684 39.7226 65.0522C39.5959 65.136 39.4875 65.2445 39.4038 65.3713C39.3202 65.4982 39.2631 65.6406 39.236 65.7901C39.209 65.9395 39.2124 66.0929 39.2462 66.241C39.28 66.3891 39.3435 66.5288 39.4328 66.6517C39.522 66.7746 39.6353 66.8782 39.7656 66.9562L50.0835 73.7856C50.6631 74.1708 51.1091 74.7261 51.3599 75.3753C51.6107 76.0244 51.6541 76.7353 51.4841 77.4101C51.7921 77.1832 52.0586 76.9046 52.2715 76.5867C52.5163 76.2172 52.6858 75.803 52.7705 75.368C52.8552 74.9329 52.8533 74.4854 52.7651 74.0511C52.6768 73.6167 52.5038 73.204 52.2561 72.8365C52.0083 72.469 51.6905 72.1539 51.3209 71.9092Z" fill="white"/><path d="M45.7201 76.2964L37.2774 70.7078C37.0287 70.5591 36.7323 70.5121 36.4498 70.5766C36.1673 70.641 35.9206 70.8121 35.761 71.054C35.6015 71.2959 35.5415 71.59 35.5934 71.8751C35.6454 72.1601 35.8054 72.4141 36.04 72.5842L44.477 78.1717C45.0567 78.557 45.5027 79.1126 45.7535 79.7619C46.0043 80.4113 46.0477 81.1224 45.8775 81.7974C46.314 81.4772 46.6662 81.0558 46.9038 80.5695C47.1415 80.0831 47.2575 79.5464 47.2419 79.0053C47.2263 78.4642 47.0796 77.935 46.8143 77.4632C46.549 76.9913 46.1742 76.5909 45.7201 76.2964Z" fill="white"/><path d="M40.1177 80.6836L36.3661 78.1975C36.1174 78.0488 35.8209 78.0018 35.5384 78.0663C35.2559 78.1308 35.0092 78.3018 34.8496 78.5437C34.6901 78.7856 34.6301 79.0797 34.6821 79.3648C34.734 79.6499 34.894 79.9039 35.1286 80.0739L38.8814 82.5578C39.4594 82.9441 39.9035 83.5 40.1527 84.1491C40.4019 84.7981 40.4439 85.5084 40.2729 86.1823C40.5831 85.9554 40.8514 85.6764 41.066 85.3577C41.5595 84.612 41.7367 83.7008 41.5589 82.8245C41.3811 81.9481 40.8628 81.1781 40.1177 80.6836Z" fill="white"/><path d="M63.6863 43.0581L57.0346 44.2359L44.1553 42.2605C42.4999 42.0075 40.8067 42.2214 39.2663 42.8781L29.0823 47.2192C28.2721 47.5651 27.581 48.1408 27.0945 48.8751L22.8727 55.2535C22.7095 55.4999 22.5965 55.776 22.5401 56.0661C22.4837 56.3562 22.485 56.6545 22.544 56.9441C22.6029 57.2337 22.7183 57.5088 22.8835 57.7538C23.0488 57.9987 23.2607 58.2088 23.5071 58.3718C23.9999 58.6981 24.5522 58.9241 25.1323 59.0369C25.7125 59.1497 26.3091 59.1471 26.8883 59.0292C27.4674 58.9114 28.0177 58.6806 28.5076 58.3501C28.9976 58.0196 29.4176 57.5958 29.7437 57.1029L31.9261 53.8057L37.5328 52.665C37.5883 52.9358 37.6546 53.2013 37.7319 53.4615C39.372 58.9467 46.0879 61.0514 50.8621 57.8915L52.6192 56.7283" fill="white"/><path d="M58.1595 46.4857L46.4051 44.5103C44.7497 44.2573 43.0566 44.4712 41.5162 45.1279L31.3322 49.469C30.522 49.8148 29.8309 50.3905 29.3444 51.1249L25.1225 57.5033C24.8469 57.9244 24.7212 58.4261 24.7659 58.9274C25.6819 59.1916 26.6582 59.1572 27.5532 58.8291C28.4482 58.501 29.2155 57.8963 29.7437 57.1028L31.9261 53.8056L37.5328 52.6649C37.5883 52.9357 37.6546 53.2011 37.7319 53.4614C39.372 58.9465 46.0879 61.0513 50.8621 57.8914L52.6192 56.7282L61.4848 45.9761L58.1595 46.4857Z" fill="white"/><path d="M19.0935 64.0671L14.785 67.6838C13.3573 68.8822 13.1715 71.0111 14.3699 72.4389C15.5684 73.8666 17.6973 74.0524 19.125 72.854L23.4335 69.2373C24.8612 68.0388 25.0471 65.9099 23.8486 64.4822C22.6502 63.0545 20.5212 62.8687 19.0935 64.0671Z" fill="white"/><path d="M22.571 69.9602L17.4008 74.3002C15.9731 75.4987 15.7872 77.6276 16.9857 79.0553C18.1841 80.483 20.313 80.6689 21.7408 79.4704L26.9109 75.1304C28.3387 73.932 28.5245 71.803 27.326 70.3753C26.1276 68.9476 23.9987 68.7618 22.571 69.9602Z" fill="white"/><path d="M27.7726 74.4071L24.3258 77.3005C22.8981 78.4989 22.7123 80.6278 23.9107 82.0556C25.1092 83.4833 27.2381 83.6691 28.6658 82.4707L32.1126 79.5773C33.5403 78.3789 33.7262 76.2499 32.5277 74.8222C31.3292 73.3945 29.2003 73.2087 27.7726 74.4071Z" fill="white"/><path d="M61.0558 40.9585L66.5961 39.9798L70.9023 64.3571L65.362 65.3358L61.0558 40.9585Z" fill="#DCDCDC"/><path d="M52.1039 59.7677L52.9229 59.2255C53.1575 59.0555 53.3175 58.8015 53.3695 58.5164C53.4214 58.2313 53.3614 57.9372 53.2019 57.6953C53.0424 57.4534 52.7956 57.2824 52.5132 57.2179C52.2307 57.1534 51.9342 57.2004 51.6855 57.3491L50.8665 57.8914C48.9579 59.149 46.639 59.6254 44.3892 59.2221L47.764 61.454C49.3133 61.204 50.7923 60.6293 52.1039 59.7677Z" fill="white"/><path d="M34.694 77.4123L31.2472 80.3056C29.8195 81.504 29.6336 83.633 30.8321 85.0607C32.0306 86.4884 34.1595 86.6742 35.5872 85.4758L39.034 82.5825C40.4617 81.384 40.6475 79.2551 39.4491 77.8274C38.2506 76.3997 36.1217 76.2138 34.694 77.4123Z" fill="white"/><path d="M67.6809 39.8024C67.6554 39.6568 67.6014 39.5176 67.522 39.3929C67.4426 39.2682 67.3395 39.1603 67.2184 39.0754C67.0973 38.9906 66.9606 38.9305 66.8163 38.8985C66.6719 38.8665 66.5227 38.8633 66.3771 38.889L60.8402 39.8643C60.6945 39.8898 60.5552 39.9439 60.4303 40.0233C60.3055 40.1028 60.1976 40.206 60.1127 40.3273C60.0279 40.4485 59.9678 40.5852 59.9359 40.7297C59.904 40.8742 59.9009 41.0236 59.9267 41.1692L60.1675 42.5315L57.0177 43.0816L55.1222 42.7914V26.1244C55.1222 24.931 54.6481 23.7865 53.8042 22.9426C52.9604 22.0987 51.8158 21.6247 50.6224 21.6247H42.7479V19.3748C42.7479 18.4797 42.3923 17.6214 41.7594 16.9885C41.1266 16.3556 40.2682 16 39.3731 16H32.6235C31.7285 16 30.8701 16.3556 30.2372 16.9885C29.6043 17.6214 29.2487 18.4797 29.2487 19.3748V21.6247H21.3742C20.1808 21.6247 19.0363 22.0987 18.1924 22.9426C17.3485 23.7865 16.8745 24.931 16.8745 26.1244V42.7948L14.9711 43.0861L11.8303 42.5326L12.0699 41.1692C12.0958 41.0236 12.0927 40.8742 12.0608 40.7297C12.0288 40.5852 11.9687 40.4485 11.8839 40.3273C11.799 40.206 11.6911 40.1028 11.5663 40.0233C11.4415 39.9439 11.3022 39.8898 11.1564 39.8643L5.62515 38.889C5.47947 38.8631 5.33011 38.8662 5.18563 38.8981C5.04115 38.93 4.90439 38.9901 4.78317 39.075C4.66196 39.1598 4.55867 39.2678 4.47923 39.3926C4.39979 39.5174 4.34576 39.6567 4.32023 39.8024L0.0173599 64.1718C-0.00853379 64.3175 -0.00543415 64.4669 0.0264813 64.6114C0.0583968 64.7558 0.118501 64.8926 0.203352 65.0138C0.288203 65.135 0.396133 65.2383 0.520961 65.3178C0.645789 65.3972 0.785062 65.4512 0.930805 65.4768L6.46885 66.4521C6.61444 66.4778 6.76368 66.4746 6.90803 66.4426C7.05238 66.4106 7.18901 66.3505 7.3101 66.2656C7.43119 66.1808 7.53437 66.0729 7.61374 65.9482C7.6931 65.8234 7.7471 65.6843 7.77264 65.5386L7.87501 64.9346L8.8042 65.0988C9.66064 66.9852 10.9066 68.669 12.4602 70.0395C12.4007 71.0552 12.6899 72.0608 13.2799 72.8898C13.8699 73.7187 14.7253 74.3213 15.7045 74.5977C15.1783 75.4718 14.9666 76.4995 15.1045 77.5104C15.2425 78.5213 15.7219 79.4547 16.4631 80.1558C17.2044 80.8568 18.163 81.2835 19.18 81.365C20.197 81.4464 21.2114 81.1779 22.0548 80.6037C22.1666 81.3507 22.4668 82.0569 22.9269 82.6559C23.3871 83.2549 23.9921 83.7268 24.6851 84.0274C25.378 84.328 26.1361 84.4472 26.8878 84.3739C27.6396 84.3006 28.3603 84.0372 28.9821 83.6084C29.0874 84.2974 29.353 84.952 29.7575 85.5195C30.1621 86.0871 30.6943 86.5516 31.3113 86.8758C31.9282 87.2 32.6127 87.3748 33.3096 87.386C34.0065 87.3972 34.6963 87.2446 35.3234 86.9405V86.9472L35.7733 87.2465C36.2661 87.5727 36.8184 87.7987 37.3985 87.9115C37.9787 88.0243 38.5753 88.0217 39.1545 87.9039C39.7336 87.786 40.2839 87.5553 40.7738 87.2247C41.2638 86.8942 41.6838 86.4704 42.01 85.9775C42.5024 85.2277 42.7544 84.3455 42.7322 83.4487C43.0971 83.5481 43.4733 83.6002 43.8515 83.6039C44.4459 83.6057 45.0348 83.4895 45.584 83.2621C46.1332 83.0346 46.6318 82.7004 47.0508 82.2788C47.4699 81.8572 47.8011 81.3567 48.0253 80.8061C48.2495 80.2556 48.3622 79.666 48.3568 79.0716C48.7149 79.1657 49.0834 79.2149 49.4536 79.2178C50.0473 79.2178 50.6351 79.1004 51.1832 78.8722C51.7312 78.644 52.2287 78.3097 52.647 77.8884C53.0653 77.4671 53.396 76.9672 53.6202 76.4175C53.8444 75.8678 53.9577 75.2791 53.9534 74.6855C54.6391 74.8642 55.3576 74.8769 56.0493 74.7227C56.741 74.5685 57.386 74.2517 57.9309 73.7986C58.4758 73.3455 58.905 72.7691 59.1828 72.1172C59.4606 71.4652 59.5791 70.7565 59.5285 70.0496C61.0836 68.6769 62.3297 66.9898 63.1846 65.0999L64.1216 64.9402L64.2274 65.5386C64.2529 65.6844 64.3069 65.8237 64.3864 65.9485C64.4658 66.0733 64.5691 66.1812 64.6903 66.2661C64.8115 66.3509 64.9483 66.411 65.0928 66.443C65.2373 66.4749 65.3866 66.478 65.5323 66.4521L71.0692 65.4768C71.2149 65.4512 71.3542 65.3972 71.479 65.3178C71.6039 65.2383 71.7118 65.135 71.7967 65.0138C71.8815 64.8926 71.9416 64.7558 71.9735 64.6114C72.0054 64.4669 72.0085 64.3175 71.9826 64.1718L67.6809 39.8024ZM31.4986 19.3748C31.4986 19.0764 31.6171 18.7903 31.8281 18.5793C32.039 18.3684 32.3252 18.2499 32.6235 18.2499H39.3731C39.6715 18.2499 39.9576 18.3684 40.1686 18.5793C40.3795 18.7903 40.498 19.0764 40.498 19.3748V21.6247H31.4986V19.3748ZM19.1243 26.1244C19.1243 25.5277 19.3614 24.9554 19.7833 24.5335C20.2052 24.1116 20.7775 23.8745 21.3742 23.8745H50.6224C51.2191 23.8745 51.7914 24.1116 52.2133 24.5335C52.6353 24.9554 52.8723 25.5277 52.8723 26.1244V29.4992C52.8723 30.3942 52.5167 31.2526 51.8838 31.8855C51.2509 32.5184 50.3926 32.874 49.4975 32.874V31.7491C49.4975 31.4507 49.379 31.1646 49.168 30.9536C48.9571 30.7426 48.6709 30.6241 48.3726 30.6241H43.8728C43.5745 30.6241 43.2884 30.7426 43.0774 30.9536C42.8664 31.1646 42.7479 31.4507 42.7479 31.7491V32.874H29.2487V31.7491C29.2487 31.4507 29.1302 31.1646 28.9192 30.9536C28.7083 30.7426 28.4221 30.6241 28.1238 30.6241H23.6241C23.3257 30.6241 23.0396 30.7426 22.8286 30.9536C22.6176 31.1646 22.4991 31.4507 22.4991 31.7491V32.874C21.6041 32.874 20.7457 32.5184 20.1128 31.8855C19.4799 31.2526 19.1243 30.3942 19.1243 29.4992V26.1244ZM47.2476 32.874V35.1238H44.9978V32.874H47.2476ZM26.9989 32.874V35.1238H24.749V32.874H26.9989ZM19.1243 33.9697C20.0922 34.7142 21.278 35.1197 22.4991 35.1238V36.2488C22.4991 36.5471 22.6176 36.8333 22.8286 37.0442C23.0396 37.2552 23.3257 37.3737 23.6241 37.3737H28.1238C28.4221 37.3737 28.7083 37.2552 28.9192 37.0442C29.1302 36.8333 29.2487 36.5471 29.2487 36.2488V35.1238H42.7479V36.2488C42.7479 36.5471 42.8664 36.8333 43.0774 37.0442C43.2884 37.2552 43.5745 37.3737 43.8728 37.3737H48.3726C48.6709 37.3737 48.9571 37.2552 49.168 37.0442C49.379 36.8333 49.4975 36.5471 49.4975 36.2488V35.1238C50.7186 35.1197 51.9044 34.7142 52.8723 33.9697V42.4472L44.3228 41.14C42.4637 40.86 40.5634 41.101 38.8331 41.8363L35.9983 43.0445L33.1714 41.8397C31.4384 41.1012 29.5337 40.8608 27.6716 41.1456L19.1243 42.4517V33.9697ZM5.75226 64.0425L2.42921 63.4553L6.33498 41.2941L9.65915 41.8802L5.75226 64.0425ZM15.2208 71.7179C14.8374 71.2609 14.6512 70.6704 14.7031 70.0761C14.755 69.4819 15.0408 68.9326 15.4976 68.549L19.8072 64.9346C20.2642 64.5509 20.855 64.3645 21.4495 64.4164C22.044 64.4683 22.5935 64.7542 22.9772 65.2113C23.3609 65.6684 23.5473 66.2591 23.4954 66.8536C23.4435 67.4481 23.1576 67.9977 22.7005 68.3813L18.3909 71.998C18.1644 72.1878 17.9027 72.3311 17.6207 72.4198C17.3388 72.5084 17.0422 72.5407 16.7478 72.5147C16.4534 72.4887 16.1671 72.4049 15.9051 72.2682C15.643 72.1315 15.4105 71.9445 15.2208 71.7179ZM21.0052 78.6126C20.7788 78.8026 20.5172 78.9461 20.2354 79.035C19.9535 79.1239 19.6569 79.1564 19.3625 79.1306C19.0681 79.1049 18.7816 79.0214 18.5194 78.8849C18.2573 78.7485 18.0246 78.5617 17.8346 78.3353C17.6446 78.1089 17.5011 77.8473 17.4122 77.5655C17.3233 77.2836 17.2908 76.987 17.3166 76.6926C17.3423 76.3981 17.4258 76.1117 17.5623 75.8495C17.6987 75.5874 17.8855 75.3547 18.1119 75.1647L23.2866 70.8258C23.7461 70.4661 24.3274 70.2991 24.9077 70.3599C25.4881 70.4207 26.0221 70.7046 26.3971 71.1517C26.7721 71.5988 26.9587 72.1741 26.9176 72.7562C26.8764 73.3383 26.6107 73.8816 26.1765 74.2715L21.0052 78.6126ZM27.9292 81.6139C27.7028 81.8038 27.4412 81.9473 27.1594 82.0361C26.8775 82.1249 26.581 82.1573 26.2866 82.1315C25.9922 82.1057 25.7058 82.0222 25.4437 81.8857C25.1817 81.7492 24.949 81.5625 24.7591 81.3361C24.5692 81.1097 24.4258 80.8481 24.3369 80.5663C24.2481 80.2844 24.2157 79.9879 24.2415 79.6935C24.2673 79.3991 24.3508 79.1127 24.4873 78.8506C24.6238 78.5885 24.8106 78.3559 25.037 78.166L28.4849 75.2738C28.9429 74.8979 29.5306 74.7178 30.1206 74.7726C30.7105 74.8274 31.255 75.1127 31.6359 75.5666C32.0167 76.0205 32.2032 76.6063 32.1547 77.1968C32.1063 77.7873 31.8268 78.3349 31.3771 78.7206L27.9292 81.6139ZM34.852 84.6209C34.3942 84.999 33.8054 85.1809 33.2141 85.1267C32.6227 85.0726 32.0768 84.7868 31.6952 84.3318C31.3137 83.8768 31.1275 83.2894 31.1773 82.6976C31.2271 82.1059 31.5087 81.5578 31.9609 81.1729L35.4077 78.2807C35.634 78.0907 35.8956 77.9472 36.1773 77.8582C36.4591 77.7693 36.7557 77.7368 37.0501 77.7625C37.3445 77.7882 37.6309 77.8716 37.893 78.008C38.1551 78.1444 38.3878 78.3311 38.5778 78.5575C38.7677 78.7839 38.9112 79.0454 39 79.3273C39.0889 79.6091 39.1213 79.9057 39.0955 80.2001C39.0697 80.4944 38.9862 80.7809 38.8497 81.0429C38.7132 81.305 38.5264 81.5377 38.2999 81.7275L34.852 84.6209ZM40.1313 84.7401C39.8332 85.1946 39.3791 85.5244 38.8547 85.6674C38.3303 85.8104 37.7717 85.7566 37.2841 85.5163L39.7466 83.4509C39.9795 83.2562 40.1921 83.0383 40.3811 82.8007C40.4875 83.1209 40.5204 83.461 40.4771 83.7956C40.4339 84.1302 40.3157 84.4508 40.1313 84.7334V84.7401ZM56.9367 71.5717C56.7736 71.8181 56.5636 72.03 56.3186 72.1953C56.0736 72.3605 55.7985 72.4759 55.5089 72.5348C55.2194 72.5937 54.921 72.595 54.631 72.5386C54.3409 72.4822 54.0648 72.3692 53.8184 72.2061L44.4353 65.9999C44.3123 65.9107 44.1725 65.8474 44.0244 65.8138C43.8763 65.7801 43.7229 65.7768 43.5734 65.8041C43.424 65.8313 43.2816 65.8885 43.1549 65.9723C43.0282 66.0561 42.9197 66.1646 42.8361 66.2914C42.7525 66.4182 42.6954 66.5607 42.6683 66.7101C42.6412 66.8596 42.6447 67.013 42.6785 67.1611C42.7123 67.3092 42.7757 67.4489 42.865 67.5718C42.9543 67.6947 43.0675 67.7983 43.1979 67.8762L50.7057 72.8451C51.203 73.1749 51.549 73.6888 51.6674 74.2737C51.7859 74.8586 51.6672 75.4666 51.3373 75.9639C51.0075 76.4613 50.4936 76.8073 49.9087 76.9257C49.3238 77.0442 48.7158 76.9254 48.2185 76.5956L40.7118 71.6279C40.5867 71.5441 40.4458 71.4867 40.2978 71.4592C40.0423 71.411 39.7781 71.4528 39.55 71.5775C39.3219 71.7022 39.144 71.902 39.0465 72.143C38.9491 72.384 38.9381 72.6513 39.0155 72.8995C39.0929 73.1476 39.2538 73.3614 39.471 73.5043L45.0956 77.2312C45.59 77.5622 45.9331 78.0754 46.0499 78.6587C46.1668 79.2421 46.0479 79.8479 45.7192 80.3437C45.3905 80.8396 44.8788 81.1851 44.2961 81.3046C43.7133 81.4242 43.1069 81.3081 42.6095 80.9817L41.3271 80.1335C41.3581 79.3081 41.1593 78.4903 40.7529 77.7713C40.3465 77.0522 39.7484 76.4601 39.0252 76.061C38.3021 75.6619 37.4823 75.4714 36.6573 75.5108C35.8323 75.5501 35.0344 75.8178 34.3525 76.284C34.2653 75.6991 34.0619 75.1376 33.7544 74.6325C33.4468 74.1275 33.0413 73.6891 32.5617 73.3431C32.0821 72.9972 31.5381 72.7507 30.9618 72.6182C30.3855 72.4858 29.7885 72.4699 29.206 72.5717C29.2257 71.5069 28.8594 70.471 28.1747 69.6553C27.4901 68.8395 26.5334 68.2991 25.4813 68.1339C25.8105 67.205 25.8248 66.1937 25.5219 65.256C25.2189 64.3182 24.6157 63.5064 23.8053 62.9457C22.9949 62.385 22.0224 62.1068 21.0381 62.154C20.0538 62.2011 19.1125 62.5711 18.3594 63.2067L14.0498 66.8233C13.7485 67.0827 13.4836 67.3817 13.2623 67.712C12.1365 66.5513 11.2491 65.1812 10.6502 63.6791C10.5793 63.5005 10.4638 63.343 10.3147 63.2217C10.1656 63.1004 9.98796 63.0193 9.79865 62.9862L8.26761 62.7162L11.4365 44.7454L14.7596 45.3315C14.8806 45.3523 15.0042 45.3523 15.1252 45.3315L28.0113 43.3696C29.4587 43.1476 30.9393 43.3346 32.286 43.9096L33.123 44.2662L28.6311 46.1786C27.6219 46.6101 26.7615 47.3282 26.1563 48.2439L21.9232 54.6257C21.4334 55.3752 21.2596 56.2879 21.4395 57.165C21.6194 58.0421 22.1386 58.8126 22.8839 59.3088C24.1285 60.1289 25.6475 60.4221 27.108 60.1241C28.5684 59.8262 29.8512 58.9614 30.6751 57.7192L32.6066 54.8102L36.7138 53.9698C37.1564 55.3346 37.9084 56.5787 38.911 57.6051C39.9135 58.6315 41.1396 59.4124 42.4937 59.887C42.9736 60.0581 43.4659 60.1924 43.9662 60.2886L56.3011 68.4556C56.7984 68.7847 57.1446 69.2978 57.2638 69.8821C57.383 70.4664 57.2653 71.0741 56.9367 71.5717ZM62.1957 62.9884C62.0056 63.0215 61.8273 63.103 61.6777 63.2249C61.5282 63.3468 61.4126 63.5052 61.3419 63.6847C60.7428 65.1938 59.8521 66.5699 58.7208 67.7345C58.4041 67.2787 58.0045 66.8864 57.543 66.5781L47.9811 60.2526C49.2236 60.0043 50.4072 59.5209 51.4684 58.8284L53.2357 57.6697C53.4851 57.5056 53.6591 57.2492 53.7194 56.9568C53.7798 56.6644 53.7215 56.36 53.5574 56.1106C53.3933 55.8612 53.1368 55.6871 52.8444 55.6268C52.552 55.5665 52.2476 55.6248 51.9982 55.7888L50.2366 56.9475C49.2177 57.6167 48.057 58.0394 46.8464 58.1822C45.6358 58.3249 44.4086 58.1837 43.262 57.7699C42.2069 57.4022 41.2536 56.7903 40.48 55.9841C39.7064 55.1778 39.1344 54.2001 38.8106 53.1306C38.7409 52.9057 38.6824 52.666 38.6329 52.4287C38.572 52.1375 38.3983 51.8824 38.1497 51.719C37.9012 51.5556 37.598 51.4973 37.3066 51.5569L31.7033 52.7043C31.4118 52.7639 31.1557 52.9366 30.9912 53.1846L28.81 56.4796C28.3154 57.2243 27.546 57.7429 26.6701 57.9218C25.7942 58.1008 24.883 57.9256 24.1359 57.4346C23.8866 57.2686 23.7128 57.011 23.6522 56.7176C23.5915 56.4243 23.6489 56.1189 23.8119 55.8676L28.0428 49.487C28.4056 48.9391 28.9205 48.509 29.5243 48.2496L39.7173 43.9073C41.0648 43.3353 42.5445 43.148 43.9921 43.3662L56.8726 45.3349C56.993 45.3534 57.1155 45.3534 57.2359 45.3349L60.5657 44.7521L63.7279 62.7229L62.1957 62.9884ZM66.2455 64.0402L62.3386 41.8791L65.6628 41.293L69.5685 63.4541L66.2455 64.0402Z" fill="#1F2B75"/></svg>