<svg width="94" height="90" viewBox="0 0 94 90" fill="none" xmlns="http://www.w3.org/2000/svg">
<rect x="13" width="81" height="64" rx="16" fill="#ECECEC"/>
<path d="M46.6667 29.3333C46.6667 25.6533 43.68 22.6666 40 22.6666C36.32 22.6666 33.3333 25.6533 33.3333 29.3333C33.3333 33.0133 36.32 35.9999 40 35.9999C43.68 35.9999 46.6667 33.0133 46.6667 29.3333ZM50.6933 22.7199C51.3867 23.8666 51.92 25.1199 52.24 26.4533L56 27.2799V31.3866L52.24 32.2133C51.92 33.5466 51.3867 34.7999 50.6933 35.9466L52.7733 39.1999L49.8667 42.1066L46.6133 40.0266C45.464 40.7199 44.2133 41.2533 42.88 41.5733L42.0533 45.3333H37.9467L37.1173 41.5733C35.784 41.2533 34.5307 40.7199 33.384 40.0266L30.1307 42.1066L27.224 39.1999L29.304 35.9466C28.6107 34.7999 28.0773 33.5466 27.7573 32.2133L24 31.3866V27.2799L27.7867 26.4533C28.08 25.1199 28.616 23.8666 29.3067 22.7199L27.2267 19.4666L30.1333 16.5599L33.3867 18.6399C34.536 17.9466 35.7867 17.4133 37.12 17.1199L37.9467 13.3333H42.0507L42.88 17.1199C44.2133 17.4133 45.4667 17.9466 46.6133 18.6399L49.8667 16.5599L52.7733 19.4666L50.6933 22.7199Z" fill="white"/>
<path d="M73.3334 78.6667V34.6667C73.3334 33.192 72.1414 32 70.6667 32H9.33341C7.85875 32 6.66675 33.192 6.66675 34.6667V78.6667H73.3334Z" fill="white"/>
<path d="M10.6667 36H69.3334V78.6667H10.6667V36Z" fill="#1CC869"/>
<path d="M30.6667 82.6667H1.33337C1.33337 85.6107 3.72271 88.0001 6.66671 88.0001H73.3334C76.2774 88.0001 78.6667 85.6107 78.6667 82.6667H49.3334H30.6667Z" fill="#DCDCDC"/>
<path d="M73.3334 78.6667C72.5974 78.6667 72 78.0694 72 77.3334V34.6667C72 33.9307 71.4 33.3334 70.6667 33.3334H9.33337C8.60004 33.3334 8.00004 33.9307 8.00004 34.6667V77.3334C8.00004 78.0694 7.40271 78.6667 6.66671 78.6667C5.93071 78.6667 5.33337 78.0694 5.33337 77.3334V34.6667C5.33337 32.4614 7.12804 30.6667 9.33337 30.6667H70.6667C72.872 30.6667 74.6667 32.4614 74.6667 34.6667V77.3334C74.6667 78.0694 74.0694 78.6667 73.3334 78.6667Z" fill="#1F2B75"/>
<path d="M30.824 65.8026C30.512 65.8026 30.2 65.6933 29.9467 65.472L21.7894 58.336C21.5014 58.0826 21.3334 57.7173 21.3334 57.3333C21.3334 56.9493 21.5014 56.584 21.7894 56.3306L29.9467 49.1946C30.4987 48.712 31.3414 48.7626 31.8267 49.32C32.3147 49.8746 32.256 50.7146 31.7014 51.2026L24.6934 57.3333L31.7014 63.4666C32.256 63.952 32.312 64.7946 31.8267 65.3493C31.5627 65.6506 31.192 65.8026 30.824 65.8026Z" fill="#1F2B75"/>
<path d="M36.36 69.592C36.2187 69.592 36.08 69.5706 35.9387 69.5226C35.24 69.2906 34.864 68.536 35.096 67.8373L42.376 45.9893C42.6107 45.2906 43.368 44.9146 44.064 45.1466C44.7627 45.3786 45.1387 46.1333 44.9067 46.832L37.6267 68.68C37.4373 69.2373 36.9173 69.592 36.36 69.592Z" fill="#1F2B75"/>
<path d="M49.176 65.8027C48.8053 65.8027 48.4373 65.648 48.1733 65.3467C47.6853 64.792 47.744 63.952 48.2986 63.464L55.3066 57.3334L48.2986 51.2C47.744 50.7147 47.688 49.872 48.1733 49.3174C48.6586 48.76 49.5013 48.7067 50.0533 49.192L58.2106 56.328C58.5013 56.584 58.6666 56.9494 58.6666 57.3334C58.6666 57.7174 58.4986 58.0827 58.2106 58.336L50.0533 65.472C49.8026 65.696 49.4906 65.8027 49.176 65.8027Z" fill="#1F2B75"/>
<path d="M73.3333 89.3333H6.66667C2.98933 89.3333 0 86.3413 0 82.6666C0 81.9306 0.597333 81.3333 1.33333 81.3333H30.6667C31.4027 81.3333 32 81.9306 32 82.6666C32 83.4026 31.4027 83.9999 30.6667 83.9999H2.896C3.44533 85.5519 4.928 86.6666 6.66667 86.6666H73.3333C75.072 86.6666 76.5547 85.5519 77.104 83.9999H49.3333C48.5973 83.9999 48 83.4026 48 82.6666C48 81.9306 48.5973 81.3333 49.3333 81.3333H78.6667C79.4027 81.3333 80 81.9306 80 82.6666C80 86.3413 77.0107 89.3333 73.3333 89.3333Z" fill="#1F2B75"/>
<path d="M55.9999 33.3333C55.2639 33.3333 54.6666 32.736 54.6666 32V28.352L51.9519 27.7547C51.4533 27.6453 51.0613 27.2587 50.9413 26.7627C50.6639 25.6053 50.1973 24.4773 49.5519 23.408C49.2879 22.9733 49.2959 22.4293 49.5706 22L51.0719 19.6507L49.6826 18.2613L47.3333 19.7653C46.9066 20.04 46.3626 20.0453 45.9253 19.7813C44.8426 19.128 43.7226 18.6693 42.5946 18.4213C42.0879 18.3093 41.6906 17.912 41.5786 17.4053L40.9786 14.6667H39.0213L38.4213 17.4053C38.3093 17.912 37.9146 18.3093 37.4053 18.4213C36.2773 18.6693 35.1573 19.128 34.0746 19.7813C33.6399 20.0453 33.0959 20.0373 32.6666 19.7653L30.3173 18.2613L28.9279 19.6507L30.4293 22C30.7039 22.4293 30.7093 22.9733 30.4479 23.408C29.7946 24.4907 29.3386 25.6107 29.0879 26.7413C28.9759 27.248 28.5786 27.6453 28.0693 27.7547L24.2826 28.5813C23.5599 28.744 22.8533 28.2827 22.6986 27.5627C22.5386 26.8453 22.9973 26.1333 23.7173 25.9787L26.7013 25.3253C26.9573 24.456 27.3093 23.6 27.7546 22.7627L26.1066 20.1867C25.7679 19.6587 25.8426 18.968 26.2853 18.5253L29.1919 15.6187C29.6346 15.176 30.3253 15.1013 30.8533 15.4373L33.4293 17.0853C34.2666 16.64 35.1279 16.288 35.9946 16.0347L36.6479 13.048C36.7786 12.4373 37.3199 12 37.9466 12H42.0506C42.6773 12 43.2186 12.4373 43.3519 13.048L44.0053 16.0347C44.8719 16.288 45.7306 16.64 46.5706 17.0853L49.1466 15.4373C49.6746 15.1013 50.3653 15.176 50.8079 15.6187L53.7146 18.5253C54.1573 18.968 54.2319 19.6587 53.8933 20.1867L52.2453 22.7627C52.6879 23.592 53.0426 24.448 53.3093 25.3253L56.2826 25.9787C56.8986 26.112 57.3333 26.6533 57.3333 27.28V32C57.3333 32.736 56.7359 33.3333 55.9999 33.3333Z" fill="#1F2B75"/>
<path d="M33.8585 33.2666C33.3412 33.2666 32.8452 32.9626 32.6319 32.4533C32.2132 31.4613 31.9999 30.4133 31.9999 29.3333C31.9999 24.9226 35.5892 21.3333 39.9999 21.3333C44.4105 21.3333 47.9999 24.9226 47.9999 29.3333C47.9999 30.4079 47.7892 31.4559 47.3732 32.4453C47.0852 33.1253 46.3012 33.4373 45.6265 33.1573C44.9492 32.8719 44.6292 32.0879 44.9145 31.4106C45.1919 30.7493 45.3332 30.0533 45.3332 29.3333C45.3332 26.3919 42.9412 23.9999 39.9999 23.9999C37.0585 23.9999 34.6665 26.3919 34.6665 29.3333C34.6665 30.0533 34.8079 30.7546 35.0852 31.4133C35.3732 32.0906 35.0559 32.8719 34.3785 33.1599C34.2079 33.2319 34.0345 33.2666 33.8585 33.2666Z" fill="#1F2B75"/>
<path d="M54.6667 75.9999C53.9307 75.9999 53.3334 75.4026 53.3334 74.6666C53.3334 73.9306 53.9307 73.2 54.6667 73.2C55.4027 73.2 56 73.6639 56 74.3999V74.6666C56 75.4026 55.4027 75.9999 54.6667 75.9999Z" fill="#1F2B75"/>
<path d="M60.0001 75.9999C59.2641 75.9999 58.6667 75.4026 58.6667 74.6666C58.6667 73.9306 59.2641 73.2 60.0001 73.2C60.7361 73.2 61.3334 73.6639 61.3334 74.3999V74.6666C61.3334 75.4026 60.7361 75.9999 60.0001 75.9999Z" fill="#1F2B75"/>
<path d="M65.3333 75.9999C64.5973 75.9999 64 75.4026 64 74.6666C64 73.9306 64.5973 73.2 65.3333 73.2C66.0693 73.2 66.6667 73.6639 66.6667 74.3999V74.6666C66.6667 75.4026 66.0693 75.9999 65.3333 75.9999Z" fill="#1F2B75"/>
</svg>
